<?xml version="1.0" encoding="utf-8"?>
<!-- Generator: Adobe Illustrator 15.1.0, SVG Export Plug-In . SVG Version: 6.00 Build 0)  -->
<!DOCTYPE svg PUBLIC "-//W3C//DTD SVG 1.1//EN" "http://www.w3.org/Graphics/SVG/1.1/DTD/svg11.dtd">
<svg version="1.1" id="Layer_1" xmlns="http://www.w3.org/2000/svg" xmlns:xlink="http://www.w3.org/1999/xlink" x="0px" y="0px"
	 width="24px" height="24px" viewBox="0 0 24 24" enable-background="new 0 0 24 24" xml:space="preserve">
<g>
	<path fill="#404041" d="M11.786,12.33c0.32-0.135,0.665-0.221,0.996-0.369c-0.154-0.288-0.3-0.621-0.435-0.888
		c-0.048-0.098-0.082-0.219-0.172-0.282c-2.135,0.618-4.5,1.005-7.261,0.998c-0.056,2.229,0.752,3.783,1.821,4.962
		C7.967,14.844,9.605,13.243,11.786,12.33z"/>
	<path fill="#404041" d="M13.237,13.173c-2.459,0.887-4.388,2.3-5.591,4.443c0.808,0.634,1.904,1.182,3.187,1.409
		c1.411,0.248,2.889-0.015,3.944-0.478c-0.316-1.817-0.828-3.547-1.409-5.07C13.33,13.379,13.335,13.243,13.237,13.173z"/>
	<path fill="#404041" d="M8.969,5.588c-1.977,0.986-3.363,2.563-3.923,4.964c2.457-0.029,4.638-0.333,6.566-0.889
		C10.777,8.258,9.938,6.858,8.969,5.588z"/>
	<path fill="#404041" d="M12,0C5.371,0,0,5.373,0,12s5.371,12,12,12c6.042,0,11.039-4.467,11.874-10.276
		c0.083-0.397,0.12-0.806,0.114-1.227C23.993,12.332,24,12.167,24,12C23.999,5.374,18.626,0,12,0z M18.134,17.638
		c-0.661,0.724-1.448,1.306-2.383,1.776c-0.93,0.468-1.992,0.829-3.25,0.89c-2.653,0.129-4.729-0.892-6.112-2.168
		c-1.423-1.314-2.499-3.073-2.687-5.612c-0.1-1.35,0.165-2.543,0.564-3.554C4.679,7.918,5.169,7.13,5.847,6.391
		c0.948-1.035,2.236-1.935,3.856-2.384c0.582-0.162,1.188-0.265,1.8-0.304c2.713-0.175,4.719,0.918,6.131,2.189
		c1.409,1.265,2.518,3.104,2.666,5.635C20.46,14.19,19.438,16.217,18.134,17.638z"/>
	<path fill="#404041" d="M14.604,12.827c0.547,1.59,1.051,3.223,1.365,5.049c0.392-0.219,0.74-0.523,1.062-0.847
		c0.98-0.98,1.704-2.253,1.992-3.898C17.803,12.773,16.091,12.592,14.604,12.827z"/>
	<path fill="#404041" d="M13.021,9.251c1.484-0.603,2.806-1.37,3.683-2.58c-1.166-0.98-2.846-1.867-4.984-1.754
		c-0.518,0.026-0.901,0.065-1.365,0.173c0.798,1.17,1.648,2.385,2.341,3.619C12.797,8.889,12.866,9.101,13.021,9.251z"/>
	<path fill="#404041" d="M13.541,10.334c0.167,0.325,0.335,0.688,0.478,1.018c0.051,0.121,0.071,0.263,0.173,0.349
		c1.647-0.185,3.479-0.048,4.919,0.238c-0.056-1.946-0.701-3.301-1.604-4.4C16.477,8.761,15.112,9.651,13.541,10.334z"/>
</g>
</svg>
