<?xml version="1.0" encoding="utf-8"?>
<!-- Generator: Adobe Illustrator 15.1.0, SVG Export Plug-In . SVG Version: 6.00 Build 0)  -->
<!DOCTYPE svg PUBLIC "-//W3C//DTD SVG 1.1//EN" "http://www.w3.org/Graphics/SVG/1.1/DTD/svg11.dtd">
<svg version="1.1" id="Layer_1" xmlns="http://www.w3.org/2000/svg" xmlns:xlink="http://www.w3.org/1999/xlink" x="0px" y="0px"
	 width="24px" height="24px" viewBox="0 0 24 24" enable-background="new 0 0 24 24" xml:space="preserve">
<path fill="#404041" d="M12,0C5.373,0,0,5.373,0,12s5.373,12,12,12c6.042,0,11.039-4.467,11.876-10.278
	c0.08-0.396,0.117-0.804,0.111-1.225C23.995,12.332,24,12.166,24,12C24,5.373,18.627,0,12,0z M20.538,12.887
	c0.029,0.01,0.046,0.041,0.037,0.07c-0.008,0.023-0.029,0.039-0.052,0.039c-0.007,0-0.012,0-0.018-0.001
	c-1.456-0.445-3.256-0.507-3.856-0.527c-0.464,1.019-1.361,1.47-2.772,1.681l0,0c-0.174,0.026-0.355,0.05-0.543,0.069
	c0.561,0.353,0.721,0.796,0.721,1.99c0,1.196-0.017,1.357-0.013,1.632c0.006,0.451,0.668,0.669,0.644,0.813
	c-0.026,0.145-0.554,0.121-0.801,0.036c-0.701-0.246-0.631-0.828-0.631-0.828l-0.022-1.599c0,0,0.048-0.861-0.273-0.861v2.618
	c0,0.569,0.402,0.743,0.402,0.953c0,0.363-0.731-0.034-0.953-0.262c-0.342-0.342-0.303-1.069-0.297-1.645
	c0.009-0.556-0.005-1.771-0.005-1.771L11.876,15.3c0,0,0.094,2.656-0.123,3.139c-0.281,0.621-1.129,0.835-1.129,0.551
	c0-0.189,0.208-0.128,0.324-0.556c0.1-0.362,0.065-3.068,0.065-3.068s-0.271,0.16-0.271,0.668c0,0.23-0.006,1.557-0.006,1.95
	c0,0.498-0.705,0.78-1.043,0.78c-0.172,0-0.386-0.009-0.386-0.1c0-0.229,0.645-0.365,0.645-0.842c0-0.414-0.009-1.479-0.009-1.479
	s-0.325,0.056-0.787,0.056c-1.168,0-1.54-0.745-1.715-1.163c-0.229-0.542-0.527-0.798-0.841-1.002
	c-0.194-0.126-0.238-0.272-0.015-0.316c1.035-0.193,1.299,1.173,1.989,1.393c0.494,0.155,1.126,0.088,1.442-0.116
	c0.042-0.419,0.343-0.78,0.593-0.97c-0.015-0.001-0.03-0.003-0.047-0.005c-1.727-0.175-2.756-0.784-3.291-1.754
	c-1.837,0.044-2.88,0.304-3.646,0.496c-0.053,0.014-0.109,0.028-0.161,0.041c-0.006,0-0.011,0.002-0.014,0.002
	c-0.026,0-0.047-0.017-0.053-0.042c-0.009-0.029,0.012-0.061,0.041-0.069c0.051-0.013,0.106-0.025,0.161-0.039
	c0.762-0.191,1.798-0.45,3.614-0.5c-0.051-0.1-0.097-0.203-0.137-0.312c-0.705-0.005-2.88,0.095-3.626,0.279
	c-0.005,0.003-0.01,0.003-0.013,0.003c-0.026,0-0.05-0.018-0.055-0.043c-0.007-0.03,0.012-0.06,0.041-0.068
	c0.74-0.182,2.863-0.283,3.614-0.281c-0.168-0.498-0.244-1.067-0.244-1.705c0-1.131,0.352-1.556,0.826-2.16
	C7.255,6.776,7.748,5.896,7.748,5.896s0.76-0.157,2.197,0.872c0.781-0.333,2.856-0.363,3.841-0.074
	c0.604-0.4,1.706-0.964,2.15-0.806c0.122,0.194,0.381,0.759,0.158,2.001c0.15,0.273,0.937,0.854,0.938,2.494
	c-0.012,0.605-0.075,1.116-0.192,1.548c1.874-0.016,2.977,0.14,3.735,0.279c0.029,0.008,0.052,0.035,0.047,0.066
	c-0.008,0.025-0.029,0.047-0.056,0.047c-0.003,0-0.008,0-0.01-0.002c-0.76-0.14-1.862-0.294-3.749-0.275
	c-0.033,0.109-0.07,0.212-0.111,0.314C17.339,12.38,19.103,12.449,20.538,12.887z"/>
</svg>
