<?xml version="1.0" encoding="utf-8"?>
<!-- Generator: Adobe Illustrator 15.1.0, SVG Export Plug-In . SVG Version: 6.00 Build 0)  -->
<!DOCTYPE svg PUBLIC "-//W3C//DTD SVG 1.1//EN" "http://www.w3.org/Graphics/SVG/1.1/DTD/svg11.dtd">
<svg version="1.1" id="Layer_1" xmlns="http://www.w3.org/2000/svg" xmlns:xlink="http://www.w3.org/1999/xlink" x="0px" y="0px"
	 width="24px" height="24px" viewBox="0 0 24 24" enable-background="new 0 0 24 24" xml:space="preserve">
<g>
	<rect x="8.48" y="6.303" fill="#404041" width="0.42" height="2.619"/>
	<path fill="#404041" d="M6.302,7.08v1.843h0.421V6.375C6.476,6.5,6.302,6.769,6.302,7.08z"/>
	<path fill="#404041" d="M15.619,8.825h1.163c0.436,0,0.791-0.356,0.791-0.791V7.19c0-0.434-0.355-0.79-0.791-0.79h-1.163
		c-0.435,0-0.79,0.356-0.79,0.79v0.844C14.829,8.469,15.185,8.825,15.619,8.825z"/>
	<rect x="7.029" y="6.303" fill="#404041" width="0.42" height="2.619"/>
	<rect x="7.754" y="6.303" fill="#404041" width="0.421" height="2.619"/>
	<path fill="#404041" d="M12,0C5.372,0,0,5.374,0,12c0,6.626,5.372,12,12,12c6.627,0,12-5.374,12-12C24,5.374,18.627,0,12,0z
		 M5.686,6.801c0-0.612,0.5-1.115,1.115-1.115h10.397c0.614,0,1.115,0.503,1.115,1.115v2.607h-3.909
		c-0.552-0.726-1.423-1.196-2.406-1.196c-0.982,0-1.853,0.47-2.404,1.196h-3.91L5.686,6.801L5.686,6.801z M14.645,11.226
		c0,1.459-1.187,2.647-2.646,2.647s-2.646-1.188-2.646-2.647c0-1.457,1.186-2.644,2.646-2.644S14.645,9.769,14.645,11.226z
		 M18.313,17.199c0,0.613-0.501,1.115-1.114,1.115H6.8c-0.613,0-1.114-0.502-1.114-1.115V9.856h3.628
		c-0.209,0.412-0.329,0.877-0.329,1.371c0,1.665,1.35,3.013,3.014,3.013c1.664,0,3.014-1.348,3.014-3.013
		c0-0.494-0.119-0.958-0.33-1.371h3.631V17.199L18.313,17.199z"/>
	<circle fill="#404041" cx="12" cy="11.228" r="2.16"/>
</g>
</svg>
