<?xml version="1.0" encoding="utf-8"?>
<!-- Generator: Adobe Illustrator 15.1.0, SVG Export Plug-In . SVG Version: 6.00 Build 0)  -->
<!DOCTYPE svg PUBLIC "-//W3C//DTD SVG 1.1//EN" "http://www.w3.org/Graphics/SVG/1.1/DTD/svg11.dtd">
<svg version="1.1" id="Layer_1" xmlns="http://www.w3.org/2000/svg" xmlns:xlink="http://www.w3.org/1999/xlink" x="0px" y="0px"
	 width="24px" height="24px" viewBox="0 0 24 24" enable-background="new 0 0 24 24" xml:space="preserve">
<g>
	<path fill="#404041" d="M13.477,7.805c-0.693-0.603-1.408-0.652-1.476-0.655h-0.002H11.98c-0.021,0.003-0.05,0.003-0.086,0.011
		c-0.077,0.01-0.187,0.031-0.321,0.07c-0.263,0.075-0.625,0.226-0.979,0.518c-0.704,0.576-1.43,1.715-1.454,4.039
		c0.024,2.244,0.708,3.384,1.385,3.98c0.65,0.567,1.318,0.642,1.453,0.654h0.006h0.004h0.003h0.021h0.008h0.003h0.018
		c0.018-0.007,0.041-0.007,0.065-0.011c0.078-0.01,0.189-0.03,0.32-0.068c0.095-0.028,0.205-0.068,0.32-0.119
		c-0.158-0.543-0.661-0.682-0.661-0.682c-0.224,0.019-0.521,0.041-0.727-0.074c-0.205-0.114-0.257-0.364-0.192-0.575
		c0.332-1.1,1.855-0.84,2.508-0.25c0.073,0.067,0.282,0.253,0.4,0.419c0.435-0.68,0.769-1.709,0.785-3.279
		C14.836,9.541,14.156,8.402,13.477,7.805z"/>
	<path fill="#404041" d="M12,0C5.373,0,0,5.373,0,12c0,6.628,5.373,12,12,12c6.042,0,11.04-4.466,11.875-10.277
		c0.083-0.396,0.12-0.806,0.113-1.226C23.995,12.333,24,12.167,24,12C24,5.373,18.628,0,12,0z M16.065,17.854
		c0.266,0.027,0.624,0.065,0.842,0.236c0.22,0.173,0.229,0.462,0.109,0.688c-0.612,1.161-2.353,0.544-3.001-0.255
		c-0.08-0.097-0.319-0.384-0.411-0.602c-0.486,0.122-0.983,0.192-1.48,0.192h-0.142c-0.105-0.003-0.206-0.011-0.311-0.016
		c-0.502-0.042-1.05-0.129-1.533-0.301c-1.046-0.361-2.067-0.985-2.806-1.83c-0.4-0.458-0.76-1.017-1.007-1.578
		c-0.404-0.914-0.527-1.91-0.527-2.882c0-1.491,0.335-2.638,0.857-3.508C7.175,7.122,7.88,6.531,8.601,6.125
		c1.442-0.801,2.955-0.848,3.311-0.848c0.036,0,0.062,0,0.073,0.003V5.277h0.031V5.28c0.011-0.003,0.037-0.003,0.073-0.003
		c0.269,0,1.186,0.025,2.233,0.376c1.05,0.354,2.241,1.033,3.022,2.345c0.522,0.871,0.856,2.016,0.856,3.508
		c0.003,1.675-0.465,3.214-1.537,4.531c-0.341,0.418-0.756,0.771-1.207,1.068C15.596,17.634,16.065,17.854,16.065,17.854z"/>
</g>
</svg>
