<?xml version="1.0" encoding="utf-8"?>
<!-- Generator: Adobe Illustrator 15.1.0, SVG Export Plug-In . SVG Version: 6.00 Build 0)  -->
<!DOCTYPE svg PUBLIC "-//W3C//DTD SVG 1.1//EN" "http://www.w3.org/Graphics/SVG/1.1/DTD/svg11.dtd">
<svg version="1.1" id="Layer_1" xmlns="http://www.w3.org/2000/svg" xmlns:xlink="http://www.w3.org/1999/xlink" x="0px" y="0px"
	 width="24px" height="24px" viewBox="0 0 24 24" enable-background="new 0 0 24 24" xml:space="preserve">
<path fill="#404041" d="M12,0C5.373,0,0,5.373,0,12s5.373,12,12,12c6.043,0,11.04-4.468,11.875-10.278
	c0.081-0.396,0.118-0.805,0.112-1.227C23.995,12.332,24,12.167,24,12C24,5.373,18.629,0,12,0z M17.523,9.823
	c0.005,0.112,0.007,0.223,0.007,0.335c0,3.426-2.606,7.377-7.375,7.377c-1.465,0-2.826-0.43-3.974-1.167
	c0.203,0.025,0.409,0.036,0.618,0.036c1.214,0,2.332-0.413,3.22-1.109c-1.134-0.02-2.092-0.771-2.423-1.799
	c0.159,0.03,0.323,0.047,0.489,0.047c0.235,0,0.465-0.032,0.683-0.092c-1.187-0.237-2.081-1.285-2.081-2.541
	c0-0.014,0-0.023,0-0.033c0.35,0.192,0.75,0.311,1.175,0.324c-0.696-0.466-1.154-1.259-1.154-2.158c0-0.476,0.127-0.92,0.352-1.305
	c1.278,1.569,3.189,2.6,5.344,2.709c-0.044-0.189-0.067-0.389-0.067-0.592c0-1.432,1.161-2.592,2.593-2.592
	c0.746,0,1.419,0.315,1.892,0.819c0.592-0.117,1.146-0.332,1.647-0.629c-0.193,0.604-0.604,1.112-1.141,1.434
	c0.525-0.061,1.025-0.201,1.489-0.407C18.469,9,18.03,9.457,17.523,9.823z"/>
</svg>
